<?xml version="1.0" encoding="utf-8"?>
<!-- Generator: Adobe Illustrator 23.1.1, SVG Export Plug-In . SVG Version: 6.00 Build 0)  -->
<svg version="1.1" id="Capa_1" xmlns="http://www.w3.org/2000/svg" xmlns:xlink="http://www.w3.org/1999/xlink" x="0px" y="0px"
	 viewBox="0 0 1366 768" style="enable-background:new 0 0 1366 768;" xml:space="preserve">
<style type="text/css">
	.st0{fill:#FFFFFF;}
</style>
<g>
	<path class="st0" d="M271.8,278.9h42.3c24.2,0,49.8,5.8,49.8,38.2c0,27-18.1,38.3-46.6,38.3h-13.8v43.8h-31.7V278.9z M316.4,335.1
		c11.1,0,16.6-6,16.6-17.6s-5.5-17.9-17.8-17.9h-11.8v35.5H316.4z"/>
	<path class="st0" d="M399.7,278.5h37.5L479,399.1h-32.9l-8.6-27.2h-42l-8.6,27.2h-29L399.7,278.5z M430.4,349.7l-10.3-32.5
		l-2.7-14.9h-2.2l-2.5,15.3l-10.3,32.2H430.4z"/>
	<path class="st0" d="M485.3,278.9h45c44.3,0,56.7,28,56.7,59.9c0,41-23.2,60.4-56.1,60.4h-45.6V278.9z M529.6,378.4
		c19.2,0,25.2-14.9,25.2-39.2c0-23.7-6.3-39.7-25.5-39.7H517v78.8H529.6z"/>
</g>
</svg>
