<?xml version="1.0" encoding="utf-8"?>
<!-- Generator: Adobe Illustrator 23.1.1, SVG Export Plug-In . SVG Version: 6.00 Build 0)  -->
<svg version="1.1" id="Capa_1" xmlns="http://www.w3.org/2000/svg" xmlns:xlink="http://www.w3.org/1999/xlink" x="0px" y="0px"
	 viewBox="0 0 360 360" style="enable-background:new 0 0 360 360;" xml:space="preserve">
<style type="text/css">
	.st0{fill:#FFFFFF;}
</style>
<g>
	<rect x="0" width="360" height="360"/>
</g>
<g>
	<path class="st0" d="M42.3,221.7h35.9c20.5,0,42.2,4.9,42.2,32.4c0,22.9-15.3,32.5-39.5,32.5H69.1v37.1H42.3V221.7z M80.1,269.4
		c9.4,0,14.1-5.1,14.1-14.9c0-9.8-4.6-15.2-15.1-15.2h-10v30.1H80.1z"/>
	<path class="st0" d="M154.9,221.5h31.8l35.5,102.3h-27.9l-7.3-23.1h-35.6l-7.3,23.1h-24.6L154.9,221.5z M181,281.8l-8.7-27.6
		l-2.3-12.7h-1.8l-2.1,12.9l-8.7,27.3H181z"/>
	<path class="st0" d="M231.8,221.7h38.1c37.6,0,48.1,23.8,48.1,50.8c0,34.7-19.7,51.2-47.6,51.2h-38.7V221.7z M269.3,306.2
		c16.3,0,21.4-12.7,21.4-33.2c0-20.1-5.3-33.6-21.7-33.6h-10.4v66.8H269.3z"/>
</g>
</svg>
