<?xml version="1.0" encoding="utf-8"?>
<!-- Generator: Adobe Illustrator 23.1.1, SVG Export Plug-In . SVG Version: 6.00 Build 0)  -->
<svg version="1.1" id="Capa_1" xmlns="http://www.w3.org/2000/svg" xmlns:xlink="http://www.w3.org/1999/xlink" x="0px" y="0px"
	 viewBox="0 0 360 360" style="enable-background:new 0 0 360 360;" xml:space="preserve">
<style type="text/css">
	.st0{fill:#FFFFFF;}
	.st1{fill:#E86E00;}
</style>
<circle cx="179.5" cy="180" r="179"/>
<g>
	<rect x="-433.5" y="-1.5" width="360" height="360"/>
</g>
<g>
	<path class="st0" d="M-366.7,221.7h35.9c20.5,0,42.2,4.9,42.2,32.4c0,22.9-15.3,32.5-39.5,32.5h-11.8v37.1h-26.8L-366.7,221.7
		L-366.7,221.7z M-328.9,269.4c9.4,0,14.1-5.1,14.1-14.9c0-9.8-4.6-15.2-15.1-15.2h-10v30.1H-328.9z"/>
	<path class="st0" d="M-254.1,221.5h31.8l35.5,102.3h-27.9l-7.3-23.1h-35.6l-7.3,23.1h-24.6L-254.1,221.5z M-228,281.8l-8.7-27.6
		l-2.3-12.7h-1.8l-2.1,12.9l-8.7,27.3h23.6V281.8z"/>
	<path class="st0" d="M-177.2,221.7h38.1c37.6,0,48.1,23.8,48.1,50.8c0,34.7-19.7,51.2-47.6,51.2h-38.7v-102L-177.2,221.7
		L-177.2,221.7z M-139.7,306.2c16.3,0,21.4-12.7,21.4-33.2c0-20.1-5.3-33.6-21.7-33.6h-10.4v66.8H-139.7z"/>
</g>
<g>
	<circle cx="611.5" cy="180" r="179"/>
	<circle class="st0" cx="611.5" cy="214.5" r="124"/>
	<ellipse class="st1" cx="611.5" cy="243.3" rx="72.7" ry="81.3"/>
</g>
<g>
	<g>
		<path class="st0" d="M94.5,59h89.7C236.7,59,292,69.9,292,139.5c0,58.3-39.3,79.8-99.5,79.8H169v87H94.6V59H94.5z M191,172.9
			c19.8,0,29-11.9,29-32.4c0-20.2-7.5-33.7-30-33.7h-21.2v66.2H191V172.9z"/>
	</g>
	<g>
		<path class="st0" d="M94.5,59h89.7C236.7,59,292,69.9,292,139.5c0,58.3-39.3,79.8-99.5,79.8H169v87H94.6V59H94.5z M191,172.9
			c19.8,0,29-11.9,29-32.4c0-20.2-7.5-33.7-30-33.7h-21.2v66.2H191V172.9z"/>
	</g>
</g>
</svg>
